<svg width="22" height="22" viewBox="0 0 22 22" xmlns="http://www.w3.org/2000/svg"><title>购物车</title><g transform="translate(-.304 -.536)" fill="none" fill-rule="evenodd"><rect fill="#FF4800" x=".348" y=".58" width="21.913" height="21.913" rx="10.957"/><path d="M8.03 16.22a.788.788 0 1 1 0 1.576.788.788 0 0 1 0-1.577zm6.831 0a.788.788 0 1 1 0 1.576.788.788 0 0 1 0-1.577zm.415-1.48h-7.38l-.568-5.345h8.765l-.817 5.345zm1.643-6.055a.428.428 0 0 0-.326-.15H7.236l-.201-1.89a.43.43 0 0 0-.427-.384h-1.39v.859h1.004l.861 8.096a.43.43 0 0 0 .427.383h8.135a.43.43 0 0 0 .424-.365l.948-6.204a.428.428 0 0 0-.098-.345z" fill="#FFF"/></g></svg>